# xmcd
#
# Track frame offsets:
#	150
#	14787
#	27106
#	37378
#	51603
#	65521
#	79715
#	97561
#	111327
#
# Disc length: 1706 seconds
#
# Revision: 0
# Processed by: cddbd v1.5.2PL0 Copyright (c) Steve Scherf et al.
# Submitted via: EasyCDDAExtractor 16.0.1.1
#
DISCID=7806a809
DTITLE=Clint Black - Put Yourself In My Shoes
DYEAR=1990
DGENRE=Country
TTITLE0=Put Yourself In My Shoes
TTITLE1=The Gulf Of Mexico
TTITLE2=One More Payment
TTITLE3=Where Are You Now
TTITLE4=The Old Man
TTITLE5=The Nightlife
TTITLE6=Loving Blind
TTITLE7=A Heart Like Mine
TTITLE8=The Goodnight-Loving
EXTD=
EXTT0=
EXTT1=
EXTT2=
EXTT3=
EXTT4=
EXTT5=
EXTT6=
EXTT7=
EXTT8=
PLAYORDER=
